<?xml version="1.0" encoding="utf-8"?>
<!-- Generator: Adobe Illustrator 25.2.1, SVG Export Plug-In . SVG Version: 6.00 Build 0)  -->
<svg version="1.1" id="Layer_1" xmlns="http://www.w3.org/2000/svg" xmlns:xlink="http://www.w3.org/1999/xlink" x="0px" y="0px"
	 viewBox="0 0 512 512" style="enable-background:new 0 0 512 512;" xml:space="preserve">
<style type="text/css">
	.st0{fill:#003366;}
	.st1{fill:#F06668;}
	.st2{fill:#F2BE3E;}
	.st3{fill:#F4E028;}
	.st4{fill:#6CC077;}
	.st5{fill:#67B8CB;}
	.st6{fill:#9F77AA;}
</style>
<circle class="st0" cx="256" cy="256" r="256"/>
<g>
	<circle class="st1" cx="256" cy="256" r="200"/>
	<path class="st2" d="M256,74.2C155.6,74.2,74.2,155.6,74.2,256S155.6,437.8,256,437.8S437.8,356.4,437.8,256S356.4,74.2,256,74.2z"
		/>
	<path class="st3" d="M256,92.4c-90.4,0-163.6,73.3-163.6,163.6c0,90.4,73.3,163.6,163.6,163.6S419.6,346.4,419.6,256
		S346.4,92.4,256,92.4z"/>
	<path class="st4" d="M256,110.5c-80.3,0-145.5,65.1-145.5,145.5S175.7,401.5,256,401.5S401.5,336.3,401.5,256
		S336.3,110.5,256,110.5z"/>
	<path class="st5" d="M256,128.7c-70.2,0-127.3,56.9-127.3,127.3S185.7,383.3,256,383.3S383.3,326.3,383.3,256
		S326.3,128.7,256,128.7z"/>
	<path class="st6" d="M256,146.9c-60.3,0-109.1,48.8-109.1,109.1S195.7,365.1,256,365.1S365.1,316.2,365.1,256
		S316.2,146.9,256,146.9z"/>
	<path class="st0" d="M256,165.1c-50.2,0-90.9,40.7-90.9,90.9s40.7,90.9,90.9,90.9c50.3,0,90.9-40.7,90.9-90.9
		C347,205.8,306.3,165.1,256,165.1z"/>
</g>
</svg>
